<svg version="1.1" id="Layer_1" xmlns="http://www.w3.org/2000/svg" xmlns:xlink="http://www.w3.org/1999/xlink" x="0px" y="0px"
	 width="100%" viewBox="0 0 2000 2000" enable-background="new 0 0 2000 2000" xml:space="preserve">
<path fill="none" opacity="1.000000" stroke="none" 
	d="
M1108.000000,2001.000000 
	C738.666687,2001.000000 369.833344,2001.000000 1.000000,2001.000000 
	C1.000000,1334.333374 1.000000,667.666687 1.000000,1.000000 
	C667.666687,1.000000 1334.333374,1.000000 2001.000000,1.000000 
	C2001.000000,667.666687 2001.000000,1334.333374 2001.000000,2001.000000 
	C1703.500000,2001.000000 1406.000000,2001.000000 1108.000000,2001.000000 
M331.961395,1153.208618 
	C332.063477,1151.220093 332.254181,1149.231689 332.254730,1147.243164 
	C332.270721,1090.085938 332.267639,1032.928711 332.267639,975.771545 
	C332.267639,974.256958 332.267639,972.742371 332.267639,971.227783 
	C333.778442,972.683960 334.443390,974.181946 335.053894,975.701782 
	C358.300995,1033.577148 381.580902,1091.439453 404.693115,1149.368652 
	C406.095917,1152.884644 407.727081,1154.088501 411.506836,1154.023926 
	C425.667053,1153.782349 439.841980,1153.653442 453.993805,1154.073975 
	C459.035034,1154.223877 461.118011,1152.533447 462.926239,1147.989868 
	C485.803253,1090.506226 508.898773,1033.109619 531.949280,975.694946 
	C532.582336,974.118164 533.333374,972.588684 534.029358,971.037170 
	C534.359985,971.139832 534.690552,971.242432 535.021118,971.345093 
	C535.021118,1032.067871 535.021118,1092.790649 535.021118,1153.585938 
	C557.476318,1153.585938 579.533081,1153.585938 601.680664,1153.585938 
	C601.680664,1052.338501 601.680664,951.432495 601.680664,850.032715 
	C599.640625,850.032715 597.852844,850.032654 596.065002,850.032654 
	C573.902039,850.032654 551.736328,850.213745 529.578186,849.887939 
	C524.850525,849.818420 523.016907,851.513794 521.337280,855.569214 
	C495.243378,918.571960 468.996582,981.511414 442.773926,1044.460815 
	C439.816193,1051.561035 436.789764,1058.632690 433.513947,1066.382935 
	C432.439850,1063.921997 431.687500,1062.263916 430.987152,1060.584106 
	C402.376465,991.963684 373.732574,923.356934 345.266174,854.676697 
	C343.705414,850.911011 341.808624,849.902039 337.934052,849.939514 
	C317.439362,850.138000 296.941742,850.032654 276.445129,850.032654 
	C272.984436,850.032654 269.523712,850.032715 265.856445,850.032715 
	C265.856445,951.547424 265.856445,1052.590820 265.856445,1153.791748 
	C287.904663,1153.791748 309.553314,1153.791748 331.961395,1153.208618 
M1573.500000,1153.925415 
	C1626.897217,1153.925415 1680.294312,1153.925415 1733.578857,1153.925415 
	C1733.578857,1134.840576 1733.578857,1116.568726 1733.578857,1097.856689 
	C1683.616211,1097.856689 1633.907715,1097.856689 1583.408813,1097.856689 
	C1585.011108,1095.639526 1586.096313,1094.052490 1587.266846,1092.531006 
	C1635.286011,1030.105469 1683.330078,967.698792 1731.257690,905.203003 
	C1732.729492,903.283936 1733.671875,900.459839 1733.722046,898.034119 
	C1733.970459,886.040649 1733.835205,874.039246 1733.835205,862.040649 
	C1733.835205,858.110535 1733.835205,854.180481 1733.835205,850.259949 
	C1657.408203,850.259949 1581.646362,850.259949 1505.695923,850.259949 
	C1505.695923,868.903687 1505.695923,887.320496 1505.695923,906.287598 
	C1555.450928,906.287598 1604.944824,906.287598 1654.960327,906.287598 
	C1653.306396,908.485168 1652.116821,910.085510 1650.906860,911.670410 
	C1603.322632,974.004761 1555.714478,1036.320923 1508.244507,1098.742310 
	C1506.601685,1100.902588 1505.648438,1104.088989 1505.557129,1106.836548 
	C1505.236084,1116.491333 1505.432495,1126.163452 1505.432495,1135.828979 
	C1505.432495,1141.782593 1505.432495,1147.736084 1505.432495,1153.925415 
	C1528.196167,1153.925415 1550.348145,1153.925415 1573.500000,1153.925415 
M1279.837158,976.346558 
	C1277.318848,980.454956 1274.501099,984.411682 1272.331421,988.696594 
	C1258.902344,1015.218445 1257.168701,1043.208740 1262.668091,1071.897339 
	C1267.787109,1098.601929 1280.363525,1121.205811 1302.953857,1136.785889 
	C1337.371460,1160.522949 1374.990356,1162.415649 1413.551880,1149.188110 
	C1439.822144,1140.177002 1458.143188,1121.755615 1469.798340,1096.154175 
	C1451.363281,1091.058594 1433.287964,1086.021240 1415.162231,1081.171631 
	C1414.239990,1080.924805 1412.372925,1081.991333 1411.807495,1082.953125 
	C1399.054810,1104.643921 1362.987305,1107.528931 1345.051880,1093.968262 
	C1335.322388,1086.611938 1329.831543,1076.893433 1327.754028,1064.272339 
	C1376.138306,1064.272339 1423.858643,1064.272339 1471.967041,1064.272339 
	C1472.413330,1056.448242 1473.095459,1049.149048 1473.198608,1041.841675 
	C1473.559204,1016.322632 1467.489868,992.659912 1451.686646,972.173706 
	C1433.495239,948.591797 1408.768555,937.018860 1379.589966,934.491638 
	C1339.395630,931.010315 1305.336670,942.730957 1279.837158,976.346558 
M837.949829,967.553345 
	C832.249756,962.717285 826.935120,957.312439 820.782532,953.144348 
	C795.154968,935.782898 766.479431,930.874512 736.394287,935.178162 
	C697.033325,940.808716 667.755859,961.047424 651.852173,998.270996 
	C642.167114,1020.939270 641.061157,1044.815552 645.055481,1068.860596 
	C650.721191,1102.967163 668.121521,1129.060913 699.430481,1144.835205 
	C721.645386,1156.027710 745.421936,1158.882568 769.866150,1155.890381 
	C797.718750,1152.481079 821.904907,1141.397461 840.673706,1119.945435 
	C858.852173,1099.168213 866.161804,1074.433716 866.587402,1047.326294 
	C867.056702,1017.437317 859.051697,990.497864 837.949829,967.553345 
M882.957825,936.941162 
	C883.039551,938.649841 882.709167,940.506775 883.263123,942.045471 
	C898.168213,983.448181 913.155762,1024.821289 928.147461,1066.192749 
	C938.273987,1094.138062 948.390198,1122.087158 958.668823,1149.976440 
	C959.253296,1151.562378 961.257568,1153.743530 962.620667,1153.757446 
	C985.271179,1153.992432 1007.924744,1153.924927 1030.655640,1153.924927 
	C1056.961182,1081.649780 1083.184570,1009.600098 1109.526733,937.224304 
	C1086.415283,937.224304 1063.869995,937.224304 1041.413574,937.224304 
	C1026.183960,984.321960 1011.051514,1031.119385 995.515259,1079.165649 
	C979.916931,1030.917480 964.757996,984.028687 949.528809,936.922363 
	C927.502197,936.922363 905.687683,936.922363 882.957825,936.941162 
M1213.317505,1091.500122 
	C1213.317505,1040.085693 1213.317505,988.671204 1213.317505,937.260376 
	C1191.916748,937.260376 1171.042114,937.260376 1150.352783,937.260376 
	C1150.352783,1009.646912 1150.352783,1081.695557 1150.352783,1153.923706 
	C1161.010132,1153.923706 1171.325562,1153.923706 1181.641113,1153.923706 
	C1192.090820,1153.923706 1202.540405,1153.923706 1212.829834,1153.923706 
	C1213.081543,1153.094116 1213.256226,1152.786499 1213.256714,1152.478638 
	C1213.286011,1132.485840 1213.301147,1112.493042 1213.317505,1091.500122 
M1150.730591,854.245300 
	C1135.277222,873.469177 1140.577515,900.089966 1162.028564,910.486877 
	C1171.006226,914.838135 1180.522583,915.555847 1190.302490,913.999939 
	C1205.835083,911.528809 1218.662109,898.869690 1220.840210,883.757141 
	C1223.135986,867.829346 1215.236328,852.754272 1201.072266,845.624878 
	C1187.890747,838.989990 1164.191406,839.100281 1150.730591,854.245300 
z"/>
<path fill="#F3372B" opacity="1.000000" stroke="none" 
	d="
M331.581665,1153.500244 
	C309.553314,1153.791748 287.904663,1153.791748 265.856445,1153.791748 
	C265.856445,1052.590820 265.856445,951.547424 265.856445,850.032715 
	C269.523712,850.032715 272.984436,850.032654 276.445129,850.032654 
	C296.941742,850.032654 317.439362,850.138000 337.934052,849.939514 
	C341.808624,849.902039 343.705414,850.911011 345.266174,854.676697 
	C373.732574,923.356934 402.376465,991.963684 430.987152,1060.584106 
	C431.687500,1062.263916 432.439850,1063.921997 433.513947,1066.382935 
	C436.789764,1058.632690 439.816193,1051.561035 442.773926,1044.460815 
	C468.996582,981.511414 495.243378,918.571960 521.337280,855.569214 
	C523.016907,851.513794 524.850525,849.818420 529.578186,849.887939 
	C551.736328,850.213745 573.902039,850.032654 596.065002,850.032654 
	C597.852844,850.032654 599.640625,850.032715 601.680664,850.032715 
	C601.680664,951.432495 601.680664,1052.338501 601.680664,1153.585938 
	C579.533081,1153.585938 557.476318,1153.585938 535.021118,1153.585938 
	C535.021118,1092.790649 535.021118,1032.067871 535.021118,971.345093 
	C534.690552,971.242432 534.359985,971.139832 534.029358,971.037170 
	C533.333374,972.588684 532.582336,974.118164 531.949280,975.694946 
	C508.898773,1033.109619 485.803253,1090.506226 462.926239,1147.989868 
	C461.118011,1152.533447 459.035034,1154.223877 453.993805,1154.073975 
	C439.841980,1153.653442 425.667053,1153.782349 411.506836,1154.023926 
	C407.727081,1154.088501 406.095917,1152.884644 404.693115,1149.368652 
	C381.580902,1091.439453 358.300995,1033.577148 335.053894,975.701782 
	C334.443390,974.181946 333.778442,972.683960 332.267639,971.227783 
	C332.267639,972.742371 332.267639,974.256958 332.267639,975.771545 
	C332.267639,1032.928711 332.270721,1090.085938 332.254730,1147.243164 
	C332.254181,1149.231689 332.063477,1151.220093 331.581665,1153.500244 
z"/>
<path fill="#FEFEFE" opacity="1.000000" stroke="none" 
	d="
M1573.000000,1153.925415 
	C1550.348145,1153.925415 1528.196167,1153.925415 1505.432495,1153.925415 
	C1505.432495,1147.736084 1505.432495,1141.782593 1505.432495,1135.828979 
	C1505.432495,1126.163452 1505.236084,1116.491333 1505.557129,1106.836548 
	C1505.648438,1104.088989 1506.601685,1100.902588 1508.244507,1098.742310 
	C1555.714478,1036.320923 1603.322632,974.004761 1650.906860,911.670410 
	C1652.116821,910.085510 1653.306396,908.485168 1654.960327,906.287598 
	C1604.944824,906.287598 1555.450928,906.287598 1505.695923,906.287598 
	C1505.695923,887.320496 1505.695923,868.903687 1505.695923,850.259949 
	C1581.646362,850.259949 1657.408203,850.259949 1733.835205,850.259949 
	C1733.835205,854.180481 1733.835205,858.110535 1733.835205,862.040649 
	C1733.835205,874.039246 1733.970459,886.040649 1733.722046,898.034119 
	C1733.671875,900.459839 1732.729492,903.283936 1731.257690,905.203003 
	C1683.330078,967.698792 1635.286011,1030.105469 1587.266846,1092.531006 
	C1586.096313,1094.052490 1585.011108,1095.639526 1583.408813,1097.856689 
	C1633.907715,1097.856689 1683.616211,1097.856689 1733.578857,1097.856689 
	C1733.578857,1116.568726 1733.578857,1134.840576 1733.578857,1153.925415 
	C1680.294312,1153.925415 1626.897217,1153.925415 1573.000000,1153.925415 
z"/>
<path fill="#FEFEFE" opacity="1.000000" stroke="none" 
	d="
M1280.012207,976.034607 
	C1305.336670,942.730957 1339.395630,931.010315 1379.589966,934.491638 
	C1408.768555,937.018860 1433.495239,948.591797 1451.686646,972.173706 
	C1467.489868,992.659912 1473.559204,1016.322632 1473.198608,1041.841675 
	C1473.095459,1049.149048 1472.413330,1056.448242 1471.967041,1064.272339 
	C1423.858643,1064.272339 1376.138306,1064.272339 1327.754028,1064.272339 
	C1329.831543,1076.893433 1335.322388,1086.611938 1345.051880,1093.968262 
	C1362.987305,1107.528931 1399.054810,1104.643921 1411.807495,1082.953125 
	C1412.372925,1081.991333 1414.239990,1080.924805 1415.162231,1081.171631 
	C1433.287964,1086.021240 1451.363281,1091.058594 1469.798340,1096.154175 
	C1458.143188,1121.755615 1439.822144,1140.177002 1413.551880,1149.188110 
	C1374.990356,1162.415649 1337.371460,1160.522949 1302.953857,1136.785889 
	C1280.363525,1121.205811 1267.787109,1098.601929 1262.668091,1071.897339 
	C1257.168701,1043.208740 1258.902344,1015.218445 1272.331421,988.696594 
	C1274.501099,984.411682 1277.318848,980.454956 1280.012207,976.034607 
M1366.500000,1023.125549 
	C1378.954224,1023.125549 1391.408447,1023.125549 1403.839844,1023.125549 
	C1404.647461,1004.124390 1387.713135,986.816345 1368.753052,986.821228 
	C1347.903564,986.826599 1328.497559,1004.435852 1329.100708,1023.125549 
	C1341.225220,1023.125549 1353.362671,1023.125549 1366.500000,1023.125549 
z"/>
<path fill="#FEFEFE" opacity="1.000000" stroke="none" 
	d="
M838.195923,967.808960 
	C859.051697,990.497864 867.056702,1017.437317 866.587402,1047.326294 
	C866.161804,1074.433716 858.852173,1099.168213 840.673706,1119.945435 
	C821.904907,1141.397461 797.718750,1152.481079 769.866150,1155.890381 
	C745.421936,1158.882568 721.645386,1156.027710 699.430481,1144.835205 
	C668.121521,1129.060913 650.721191,1102.967163 645.055481,1068.860596 
	C641.061157,1044.815552 642.167114,1020.939270 651.852173,998.270996 
	C667.755859,961.047424 697.033325,940.808716 736.394287,935.178162 
	C766.479431,930.874512 795.154968,935.782898 820.782532,953.144348 
	C826.935120,957.312439 832.249756,962.717285 838.195923,967.808960 
M741.642944,992.980286 
	C728.049805,997.365295 719.598083,1007.078857 715.170654,1020.105103 
	C709.380798,1037.139648 709.645447,1054.514648 715.321472,1071.543579 
	C718.724487,1081.752930 725.088989,1090.000610 734.908203,1095.116821 
	C756.803955,1106.525513 784.297241,1095.651611 793.885132,1071.176514 
	C800.553528,1054.153809 800.526367,1036.567017 793.884277,1019.533875 
	C785.334656,997.608948 764.153015,986.941895 741.642944,992.980286 
z"/>
<path fill="#FEFEFE" opacity="1.000000" stroke="none" 
	d="
M883.415527,936.931763 
	C905.687683,936.922363 927.502197,936.922363 949.528809,936.922363 
	C964.757996,984.028687 979.916931,1030.917480 995.515259,1079.165649 
	C1011.051514,1031.119385 1026.183960,984.321960 1041.413574,937.224304 
	C1063.869995,937.224304 1086.415283,937.224304 1109.526733,937.224304 
	C1083.184570,1009.600098 1056.961182,1081.649780 1030.655640,1153.924927 
	C1007.924744,1153.924927 985.271179,1153.992432 962.620667,1153.757446 
	C961.257568,1153.743530 959.253296,1151.562378 958.668823,1149.976440 
	C948.390198,1122.087158 938.273987,1094.138062 928.147461,1066.192749 
	C913.155762,1024.821289 898.168213,983.448181 883.263123,942.045471 
	C882.709167,940.506775 883.039551,938.649841 883.415527,936.931763 
z"/>
<path fill="#FFFFFF" opacity="1.000000" stroke="none" 
	d="
M1213.317505,1092.000244 
	C1213.301147,1112.493042 1213.286011,1132.485840 1213.256714,1152.478638 
	C1213.256226,1152.786499 1213.081543,1153.094116 1212.829834,1153.923706 
	C1202.540405,1153.923706 1192.090820,1153.923706 1181.641113,1153.923706 
	C1171.325562,1153.923706 1161.010132,1153.923706 1150.352783,1153.923706 
	C1150.352783,1081.695557 1150.352783,1009.646912 1150.352783,937.260376 
	C1171.042114,937.260376 1191.916748,937.260376 1213.317505,937.260376 
	C1213.317505,988.671204 1213.317505,1040.085693 1213.317505,1092.000244 
z"/>
<path fill="#FEFEFE" opacity="1.000000" stroke="none" 
	d="
M1150.976074,853.987183 
	C1164.191406,839.100281 1187.890747,838.989990 1201.072266,845.624878 
	C1215.236328,852.754272 1223.135986,867.829346 1220.840210,883.757141 
	C1218.662109,898.869690 1205.835083,911.528809 1190.302490,913.999939 
	C1180.522583,915.555847 1171.006226,914.838135 1162.028564,910.486877 
	C1140.577515,900.089966 1135.277222,873.469177 1150.976074,853.987183 
z"/>
<path fill="#010101" opacity="1.000000" stroke="none" 
	d="
M1366.000000,1023.125549 
	C1353.362671,1023.125549 1341.225220,1023.125549 1329.100708,1023.125549 
	C1328.497559,1004.435852 1347.903564,986.826599 1368.753052,986.821228 
	C1387.713135,986.816345 1404.647461,1004.124390 1403.839844,1023.125549 
	C1391.408447,1023.125549 1378.954224,1023.125549 1366.000000,1023.125549 
z"/>
<path fill="#010101" opacity="1.000000" stroke="none" 
	d="
M742.038574,992.886353 
	C764.153015,986.941895 785.334656,997.608948 793.884277,1019.533875 
	C800.526367,1036.567017 800.553528,1054.153809 793.885132,1071.176514 
	C784.297241,1095.651611 756.803955,1106.525513 734.908203,1095.116821 
	C725.088989,1090.000610 718.724487,1081.752930 715.321472,1071.543579 
	C709.645447,1054.514648 709.380798,1037.139648 715.170654,1020.105103 
	C719.598083,1007.078857 728.049805,997.365295 742.038574,992.886353 
z"/>
</svg>