<svg version="1.1" id="Layer_1" xmlns="http://www.w3.org/2000/svg" xmlns:xlink="http://www.w3.org/1999/xlink" x="0px" y="0px"
	 width="100%" viewBox="0 0 1080 1080" enable-background="new 0 0 1080 1080" xml:space="preserve">
<path fill="#000000" opacity="1.000000" stroke="none" 
	d="
M600.000000,1081.000000 
	C400.023010,1081.000000 200.546036,1081.000000 1.034532,1081.000000 
	C1.034532,721.064575 1.034532,361.129120 1.034532,1.096845 
	C360.893860,1.096845 720.787720,1.096845 1080.840820,1.096845 
	C1080.840820,360.999939 1080.840820,720.999939 1080.840820,1081.000000 
	C920.795349,1081.000000 760.647644,1081.000000 600.000000,1081.000000 
M187.008163,464.351685 
	C186.693390,463.866547 186.378632,463.381409 186.041931,462.974335 
	C186.041931,462.974335 186.121948,462.961212 185.994324,462.150269 
	C185.202087,461.440155 184.415665,460.118591 183.616745,460.110992 
	C170.193359,459.983490 156.768402,460.019897 143.302460,460.019897 
	C143.302460,515.597534 143.302460,570.608582 143.302460,626.018066 
	C154.392838,626.018066 165.182175,626.042419 175.971024,625.979187 
	C177.010864,625.973083 178.047516,625.422974 179.794556,624.612488 
	C179.869339,622.621216 180.008331,620.629944 180.009277,618.638611 
	C180.023285,589.354980 180.018921,560.071350 180.018921,529.748596 
	C180.989731,531.335327 181.582153,532.051636 181.907043,532.873779 
	C184.967209,540.617004 187.925705,548.400696 191.019943,556.130127 
	C199.968491,578.483521 208.921219,600.835693 218.058487,623.112000 
	C218.598694,624.429016 220.748917,625.844666 222.200699,625.900818 
	C229.517670,626.183411 236.860046,625.819275 244.175781,626.117188 
	C247.918289,626.269653 249.662262,624.395874 250.817474,621.434143 
	C252.297943,617.638489 253.514847,613.738586 255.036011,609.960388 
	C262.329773,591.844482 269.680267,573.751404 277.026611,555.656677 
	C280.419952,547.298523 283.849762,538.955078 287.263031,530.604919 
	C288.017273,533.053467 288.013855,535.315247 288.017822,537.577087 
	C288.068237,566.385071 288.119659,595.192993 288.352692,624.786621 
	C289.368652,625.196716 290.381409,625.953735 291.401031,625.963074 
	C301.367340,626.054199 311.335358,626.073364 321.301331,625.966736 
	C322.828491,625.950439 324.347626,625.190186 325.041351,625.000610 
	C325.041351,592.971191 325.041351,561.548645 325.747040,529.608948 
	C325.774078,507.412018 325.801086,485.215088 325.868073,462.425232 
	C325.522156,461.948914 325.176270,461.472595 324.757202,460.393036 
	C324.181183,460.323792 323.605164,460.254547 322.097687,460.044281 
	C310.395264,460.088928 298.692810,460.133606 286.503387,460.055420 
	C286.339813,460.091064 286.176239,460.126709 285.303192,460.029022 
	C283.955048,460.682861 282.606903,461.336670 281.069794,462.735168 
	C265.566315,500.195312 250.062820,537.655457 233.975845,576.525391 
	C229.749222,566.359619 226.133118,557.698425 222.545578,549.025391 
	C216.696121,534.884094 210.956146,520.696655 204.993744,506.603271 
	C201.207123,497.652771 197.101501,488.837219 193.026917,479.201660 
	C192.040512,476.765961 191.054108,474.330231 190.047226,471.973328 
	C190.047226,471.973328 190.127823,471.961792 190.020599,471.225250 
	C189.028214,469.130188 188.035843,467.035156 187.005508,464.996643 
	C187.005508,464.996643 187.071243,464.978821 187.008163,464.351685 
M937.000549,467.561096 
	C937.000549,465.125153 937.000549,462.689178 937.000549,460.269348 
	C895.065430,460.269348 853.669617,460.269348 812.259766,460.269348 
	C812.259766,470.924408 812.259766,481.327759 812.259766,492.124054 
	C838.866394,492.124054 865.215698,492.124054 892.100342,492.124054 
	C880.603821,507.157501 869.520325,521.697449 858.385986,536.198425 
	C845.026672,553.597229 831.758179,571.068787 818.167542,588.285522 
	C813.370117,594.363037 810.978455,600.695374 811.912598,608.464355 
	C812.406250,612.570251 812.236511,616.801880 811.931702,620.944763 
	C811.640625,624.901062 812.988586,626.114197 816.998779,626.085510 
	C840.989746,625.913879 864.982544,626.000549 888.974731,626.000549 
	C903.470032,626.000549 917.965271,625.998901 932.460571,626.002380 
	C934.647827,626.002930 937.010620,626.338989 937.004822,622.990540 
	C936.988159,613.395081 936.998962,603.799561 936.998962,594.073853 
	C910.130066,594.073853 883.836853,594.073853 856.896790,594.073853 
	C857.994568,592.393188 858.762817,591.045044 859.692871,589.819641 
	C869.212341,577.277222 878.744629,564.744324 888.301147,552.230042 
	C894.994934,543.464539 901.684937,534.695374 908.460938,525.993469 
	C917.240601,514.718506 926.205750,503.585754 934.830139,492.194275 
	C936.241455,490.330017 936.772949,487.474945 936.906494,485.033875 
	C937.206299,479.552063 937.000549,474.042572 937.000549,467.561096 
M714.691528,622.971130 
	C749.091309,634.531372 782.592041,622.435730 794.062256,593.624268 
	C793.428528,593.283203 792.807068,592.797607 792.103760,592.593079 
	C783.338074,590.043518 774.588928,587.424500 765.752014,585.147644 
	C764.573792,584.844177 762.486450,585.954773 761.579285,587.043335 
	C753.261169,597.024231 742.213135,597.726196 731.773560,594.777405 
	C725.212708,592.924255 716.564575,583.860718 718.601807,576.862183 
	C744.234802,576.862183 769.978760,576.862183 796.943115,576.862183 
	C795.930603,566.483643 795.909912,556.372192 793.797485,546.718384 
	C789.651550,527.771790 777.603210,515.258362 759.313965,508.761749 
	C750.296143,505.558472 740.944763,505.836243 731.608337,506.013519 
	C720.199219,506.230133 710.156860,510.497192 701.293518,517.308105 
	C686.419373,528.738037 680.095703,544.864624 679.231201,562.855225 
	C678.608887,575.805969 681.235229,588.604431 688.019470,600.092529 
	C694.154968,610.482117 702.821411,617.985901 714.691528,622.971130 
M454.033752,525.376465 
	C451.835693,523.235779 449.934753,520.606750 447.379944,519.052429 
	C441.406403,515.418152 435.276337,511.954926 428.920776,509.055756 
	C420.146667,505.053345 410.633881,505.935486 401.316772,506.019653 
	C385.898682,506.158966 372.997803,512.797363 362.480438,523.301880 
	C351.152710,534.615784 346.590637,549.387756 346.154175,565.120056 
	C345.894440,574.480591 347.761993,583.702026 351.187042,592.623535 
	C356.505951,606.477966 366.144318,616.335938 379.460236,621.825623 
	C399.793121,630.208191 420.250458,629.462463 439.867889,618.965088 
	C452.023193,612.460754 460.092041,602.127625 464.915253,589.421448 
	C468.511993,579.946228 468.656799,569.978882 468.112732,559.878235 
	C467.413177,546.890869 462.788635,535.751526 454.033752,525.376465 
M509.962799,604.498108 
	C511.979279,610.243347 514.104614,615.953613 515.967896,621.748108 
	C516.950256,624.803162 518.446411,626.180603 521.921814,626.088745 
	C531.581787,625.833618 541.256714,625.839966 550.917664,626.075256 
	C555.056274,626.176025 557.271423,625.556396 558.882446,620.847656 
	C565.874451,600.411255 573.568420,580.214661 581.029663,559.939209 
	C585.233032,548.516846 589.577332,537.145325 593.667664,525.682922 
	C595.798279,519.712280 597.515991,513.594238 599.590759,507.000732 
	C587.228088,507.000732 575.749329,506.939636 564.273621,507.099731 
	C563.183777,507.114899 561.463928,508.299164 561.130310,509.303894 
	C555.320129,526.797913 549.665344,544.343689 544.013000,561.889832 
	C541.890381,568.478699 539.859985,575.097351 537.471741,582.708923 
	C536.514526,579.633606 535.915833,577.657349 535.284912,575.691467 
	C528.189148,553.581238 521.117249,531.463196 513.897400,509.393524 
	C513.565063,508.377686 511.903229,507.137512 510.843048,507.120880 
	C500.012787,506.950958 489.178894,507.005554 478.346008,507.015320 
	C475.546936,507.017822 474.559906,507.656616 475.882263,510.882507 
	C479.519867,519.756287 482.689331,528.822632 486.009674,537.825500 
	C490.217499,549.234741 494.491180,560.621094 498.550812,572.083069 
	C502.293243,582.649414 505.790100,593.302734 509.962799,604.498108 
M656.000244,553.500000 
	C656.000244,538.074036 656.000244,522.648071 656.000244,507.012726 
	C645.298157,507.012726 635.154297,507.192963 625.022461,506.923340 
	C621.013855,506.816681 619.881592,508.069458 619.917542,512.028320 
	C620.097290,531.851929 619.999817,551.677917 619.999817,571.503113 
	C619.999817,588.162964 619.934692,604.823425 620.109924,621.481445 
	C620.125854,622.991882 621.653320,625.769043 622.537048,625.792786 
	C633.620911,626.089905 644.715515,625.987610 656.000244,625.987610 
	C656.000244,601.773621 656.000244,578.136780 656.000244,553.500000 
z"/>
<path fill="#F3372B" opacity="1.000000" stroke="none" 
	d="
M193.138916,479.961151 
	C197.101501,488.837219 201.207123,497.652771 204.993744,506.603271 
	C210.956146,520.696655 216.696121,534.884094 222.545578,549.025391 
	C226.133118,557.698425 229.749222,566.359619 233.975845,576.525391 
	C250.062820,537.655457 265.566315,500.195312 281.474976,462.511871 
	C294.660492,462.192993 307.442932,462.202179 320.219727,461.937561 
	C324.027191,461.858734 324.021851,463.946777 324.020081,466.674530 
	C323.987030,517.591858 323.954132,568.509277 324.077820,619.426331 
	C324.087372,623.358398 322.657410,624.136780 319.119263,624.069580 
	C308.806396,623.873535 298.487427,624.000610 288.170837,624.000977 
	C288.119659,595.192993 288.068237,566.385071 288.017822,537.577087 
	C288.013855,535.315247 288.017273,533.053467 287.263031,530.604919 
	C283.849762,538.955078 280.419952,547.298523 277.026611,555.656677 
	C269.680267,573.751404 262.329773,591.844482 255.036011,609.960388 
	C253.514847,613.738586 252.297943,617.638489 250.817474,621.434143 
	C249.662262,624.395874 247.918289,626.269653 244.175781,626.117188 
	C236.860046,625.819275 229.517670,626.183411 222.200699,625.900818 
	C220.748917,625.844666 218.598694,624.429016 218.058487,623.112000 
	C208.921219,600.835693 199.968491,578.483521 191.019943,556.130127 
	C187.925705,548.400696 184.967209,540.617004 181.907043,532.873779 
	C181.582153,532.051636 180.989731,531.335327 180.018921,529.748596 
	C180.018921,560.071350 180.023285,589.354980 180.009277,618.638611 
	C180.008331,620.629944 179.869339,622.621216 179.153503,624.551758 
	C168.544342,624.327209 158.575958,624.044556 148.608246,624.066711 
	C145.291992,624.074097 143.922150,623.309814 143.929718,619.645630 
	C144.035202,568.487915 144.026749,517.329895 143.941299,466.172150 
	C143.935715,462.836670 145.087219,461.897156 148.290543,461.941864 
	C159.286514,462.095398 170.286240,461.962219 181.283737,462.044128 
	C182.898651,462.056122 184.509308,462.641266 186.121948,462.961212 
	C186.121948,462.961212 186.041931,462.974335 186.054291,463.250458 
	C186.401520,464.010651 186.736389,464.494720 187.071259,464.978821 
	C187.071243,464.978821 187.005508,464.996643 187.014771,465.348999 
	C188.058640,467.788147 189.093231,469.874969 190.127823,471.961792 
	C190.127823,471.961792 190.047226,471.973328 190.034256,472.334747 
	C191.060501,475.117828 192.099716,477.539490 193.138916,479.961151 
z"/>
<path fill="#FFFFFF" opacity="1.000000" stroke="none" 
	d="
M937.000549,468.052734 
	C937.000549,474.042572 937.206299,479.552063 936.906494,485.033875 
	C936.772949,487.474945 936.241455,490.330017 934.830139,492.194275 
	C926.205750,503.585754 917.240601,514.718506 908.460938,525.993469 
	C901.684937,534.695374 894.994934,543.464539 888.301147,552.230042 
	C878.744629,564.744324 869.212341,577.277222 859.692871,589.819641 
	C858.762817,591.045044 857.994568,592.393188 856.896790,594.073853 
	C883.836853,594.073853 910.130066,594.073853 936.998962,594.073853 
	C936.998962,603.799561 936.988159,613.395081 937.004822,622.990540 
	C937.010620,626.338989 934.647827,626.002930 932.460571,626.002380 
	C917.965271,625.998901 903.470032,626.000549 888.974731,626.000549 
	C864.982544,626.000549 840.989746,625.913879 816.998779,626.085510 
	C812.988586,626.114197 811.640625,624.901062 811.931702,620.944763 
	C812.236511,616.801880 812.406250,612.570251 811.912598,608.464355 
	C810.978455,600.695374 813.370117,594.363037 818.167542,588.285522 
	C831.758179,571.068787 845.026672,553.597229 858.385986,536.198425 
	C869.520325,521.697449 880.603821,507.157501 892.100342,492.124054 
	C865.215698,492.124054 838.866394,492.124054 812.259766,492.124054 
	C812.259766,481.327759 812.259766,470.924408 812.259766,460.269348 
	C853.669617,460.269348 895.065430,460.269348 937.000549,460.269348 
	C937.000549,462.689178 937.000549,465.125153 937.000549,468.052734 
z"/>
<path fill="#FFFFFF" opacity="1.000000" stroke="none" 
	d="
M714.357056,622.749695 
	C702.821411,617.985901 694.154968,610.482117 688.019470,600.092529 
	C681.235229,588.604431 678.608887,575.805969 679.231201,562.855225 
	C680.095703,544.864624 686.419373,528.738037 701.293518,517.308105 
	C710.156860,510.497192 720.199219,506.230133 731.608337,506.013519 
	C740.944763,505.836243 750.296143,505.558472 759.313965,508.761749 
	C777.603210,515.258362 789.651550,527.771790 793.797485,546.718384 
	C795.909912,556.372192 795.930603,566.483643 796.943115,576.862183 
	C769.978760,576.862183 744.234802,576.862183 718.601807,576.862183 
	C716.564575,583.860718 725.212708,592.924255 731.773560,594.777405 
	C742.213135,597.726196 753.261169,597.024231 761.579285,587.043335 
	C762.486450,585.954773 764.573792,584.844177 765.752014,585.147644 
	C774.588928,587.424500 783.338074,590.043518 792.103760,592.593079 
	C792.807068,592.797607 793.428528,593.283203 794.062256,593.624268 
	C782.592041,622.435730 749.091309,634.531372 714.357056,622.749695 
M754.116882,543.669434 
	C753.420288,542.958069 752.648682,542.305359 752.038879,541.526062 
	C746.739746,534.754211 739.172485,534.667053 732.264465,536.550293 
	C724.191711,538.751160 719.213806,544.940735 718.037842,553.727539 
	C731.137573,553.727539 744.028687,553.727539 757.743774,553.727539 
	C756.626709,550.217224 755.664429,547.193420 754.116882,543.669434 
z"/>
<path fill="#FFFFFF" opacity="1.000000" stroke="none" 
	d="
M454.247284,525.672974 
	C462.788635,535.751526 467.413177,546.890869 468.112732,559.878235 
	C468.656799,569.978882 468.511993,579.946228 464.915253,589.421448 
	C460.092041,602.127625 452.023193,612.460754 439.867889,618.965088 
	C420.250458,629.462463 399.793121,630.208191 379.460236,621.825623 
	C366.144318,616.335938 356.505951,606.477966 351.187042,592.623535 
	C347.761993,583.702026 345.894440,574.480591 346.154175,565.120056 
	C346.590637,549.387756 351.152710,534.615784 362.480438,523.301880 
	C372.997803,512.797363 385.898682,506.158966 401.316772,506.019653 
	C410.633881,505.935486 420.146667,505.053345 428.920776,509.055756 
	C435.276337,511.954926 441.406403,515.418152 447.379944,519.052429 
	C449.934753,520.606750 451.835693,523.235779 454.247284,525.672974 
M415.776489,539.249939 
	C400.708099,534.765991 391.045166,540.948853 386.821777,552.966736 
	C383.396179,562.714600 383.232208,573.170776 388.028809,582.881104 
	C393.535187,594.028198 405.745850,598.787109 417.125916,592.324707 
	C424.012054,588.414185 428.206543,582.601257 429.258820,574.411072 
	C431.256256,558.863953 429.490753,547.907532 415.776489,539.249939 
z"/>
<path fill="#FFFFFF" opacity="1.000000" stroke="none" 
	d="
M509.678955,604.207947 
	C505.790100,593.302734 502.293243,582.649414 498.550812,572.083069 
	C494.491180,560.621094 490.217499,549.234741 486.009674,537.825500 
	C482.689331,528.822632 479.519867,519.756287 475.882263,510.882507 
	C474.559906,507.656616 475.546936,507.017822 478.346008,507.015320 
	C489.178894,507.005554 500.012787,506.950958 510.843048,507.120880 
	C511.903229,507.137512 513.565063,508.377686 513.897400,509.393524 
	C521.117249,531.463196 528.189148,553.581238 535.284912,575.691467 
	C535.915833,577.657349 536.514526,579.633606 537.471741,582.708923 
	C539.859985,575.097351 541.890381,568.478699 544.013000,561.889832 
	C549.665344,544.343689 555.320129,526.797913 561.130310,509.303894 
	C561.463928,508.299164 563.183777,507.114899 564.273621,507.099731 
	C575.749329,506.939636 587.228088,507.000732 599.590759,507.000732 
	C597.515991,513.594238 595.798279,519.712280 593.667664,525.682922 
	C589.577332,537.145325 585.233032,548.516846 581.029663,559.939209 
	C573.568420,580.214661 565.874451,600.411255 558.882446,620.847656 
	C557.271423,625.556396 555.056274,626.176025 550.917664,626.075256 
	C541.256714,625.839966 531.581787,625.833618 521.921814,626.088745 
	C518.446411,626.180603 516.950256,624.803162 515.967896,621.748108 
	C514.104614,615.953613 511.979279,610.243347 509.678955,604.207947 
z"/>
<path fill="#FFFFFF" opacity="1.000000" stroke="none" 
	d="
M656.000244,554.000000 
	C656.000244,578.136780 656.000244,601.773621 656.000244,625.987610 
	C644.715515,625.987610 633.620911,626.089905 622.537048,625.792786 
	C621.653320,625.769043 620.125854,622.991882 620.109924,621.481445 
	C619.934692,604.823425 619.999817,588.162964 619.999817,571.503113 
	C619.999817,551.677917 620.097290,531.851929 619.917542,512.028320 
	C619.881592,508.069458 621.013855,506.816681 625.022461,506.923340 
	C635.154297,507.192963 645.298157,507.012726 656.000244,507.012726 
	C656.000244,522.648071 656.000244,538.074036 656.000244,554.000000 
z"/>
<path fill="#F94338" opacity="1.000000" stroke="none" 
	d="
M288.261780,624.393799 
	C298.487427,624.000610 308.806396,623.873535 319.119263,624.069580 
	C322.657410,624.136780 324.087372,623.358398 324.077820,619.426331 
	C323.954132,568.509277 323.987030,517.591858 324.020081,466.674530 
	C324.021851,463.946777 324.027191,461.858734 320.219727,461.937561 
	C307.442932,462.202179 294.660492,462.192993 281.569458,462.139526 
	C282.606903,461.336670 283.955048,460.682861 285.749237,460.239716 
	C286.460327,460.359680 286.725372,460.268982 286.990387,460.178284 
	C298.692810,460.133606 310.395264,460.088928 322.725616,460.317871 
	C323.845825,460.726379 324.338104,460.861328 324.830383,460.996277 
	C325.176270,461.472595 325.522156,461.948914 325.578186,463.035126 
	C325.205963,485.805389 325.123657,507.965729 325.041351,530.126099 
	C325.041351,561.548645 325.041351,592.971191 325.041351,625.000610 
	C324.347626,625.190186 322.828491,625.950439 321.301331,625.966736 
	C311.335358,626.073364 301.367340,626.054199 291.401031,625.963074 
	C290.381409,625.953735 289.368652,625.196716 288.261780,624.393799 
z"/>
<path fill="#F94338" opacity="1.000000" stroke="none" 
	d="
M186.058136,462.555725 
	C184.509308,462.641266 182.898651,462.056122 181.283737,462.044128 
	C170.286240,461.962219 159.286514,462.095398 148.290543,461.941864 
	C145.087219,461.897156 143.935715,462.836670 143.941299,466.172150 
	C144.026749,517.329895 144.035202,568.487915 143.929718,619.645630 
	C143.922150,623.309814 145.291992,624.074097 148.608246,624.066711 
	C158.575958,624.044556 168.544342,624.327209 178.799042,624.808228 
	C178.047516,625.422974 177.010864,625.973083 175.971024,625.979187 
	C165.182175,626.042419 154.392838,626.018066 143.302460,626.018066 
	C143.302460,570.608582 143.302460,515.597534 143.302460,460.019897 
	C156.768402,460.019897 170.193359,459.983490 183.616745,460.110992 
	C184.415665,460.118591 185.202087,461.440155 186.058136,462.555725 
z"/>
<path fill="#F3372B" opacity="1.000000" stroke="none" 
	d="
M325.394196,529.867554 
	C325.123657,507.965729 325.205963,485.805389 325.558197,463.331604 
	C325.801086,485.215088 325.774078,507.412018 325.394196,529.867554 
z"/>
<path fill="#F94338" opacity="1.000000" stroke="none" 
	d="
M193.082916,479.581421 
	C192.099716,477.539490 191.060501,475.117828 190.044495,472.295349 
	C191.054108,474.330231 192.040512,476.765961 193.082916,479.581421 
z"/>
<path fill="#F94338" opacity="1.000000" stroke="none" 
	d="
M190.074219,471.593506 
	C189.093231,469.874969 188.058640,467.788147 187.033752,465.320709 
	C188.035843,467.035156 189.028214,469.130188 190.074219,471.593506 
z"/>
<path fill="#F94338" opacity="1.000000" stroke="none" 
	d="
M187.039703,464.665253 
	C186.736389,464.494720 186.401520,464.010651 186.065262,463.211426 
	C186.378632,463.381409 186.693390,463.866547 187.039703,464.665253 
z"/>
<path fill="#F3372B" opacity="1.000000" stroke="none" 
	d="
M324.793793,460.694641 
	C324.338104,460.861328 323.845825,460.726379 323.191345,460.388367 
	C323.605164,460.254547 324.181183,460.323792 324.793793,460.694641 
z"/>
<path fill="#F3372B" opacity="1.000000" stroke="none" 
	d="
M286.746887,460.116852 
	C286.725372,460.268982 286.460327,460.359680 286.103973,460.306396 
	C286.176239,460.126709 286.339813,460.091064 286.746887,460.116852 
z"/>
<path fill="#000000" opacity="1.000000" stroke="none" 
	d="
M754.409485,543.919495 
	C755.664429,547.193420 756.626709,550.217224 757.743774,553.727539 
	C744.028687,553.727539 731.137573,553.727539 718.037842,553.727539 
	C719.213806,544.940735 724.191711,538.751160 732.264465,536.550293 
	C739.172485,534.667053 746.739746,534.754211 752.038879,541.526062 
	C752.648682,542.305359 753.420288,542.958069 754.409485,543.919495 
z"/>
<path fill="#000000" opacity="1.000000" stroke="none" 
	d="
M416.038544,539.554443 
	C429.490753,547.907532 431.256256,558.863953 429.258820,574.411072 
	C428.206543,582.601257 424.012054,588.414185 417.125916,592.324707 
	C405.745850,598.787109 393.535187,594.028198 388.028809,582.881104 
	C383.232208,573.170776 383.396179,562.714600 386.821777,552.966736 
	C391.045166,540.948853 400.708099,534.765991 416.038544,539.554443 
z"/>
</svg>